# xmcd
#
# Track frame offsets:
# 150
# 14907
# 63281
# 96733
# 143563
# 174070
# 198804
#
# Disc length: 2940 seconds
#
# Revision: 0
# Processed by: cddbd v1.5.1PL2 Copyright (c) Steve Scherf et al.
# Submitted via: Audion 3.0.2 (http://www.panic.com/audion/)
#
DISCID=5a0b7a07
DTITLE=Dave Gahan - Dirty Sticky Floors
DYEAR=1900
DGENRE=
TTITLE0=Dirty Sticky Floors (Radio Mix)
TTITLE1=Dirty Sticky Floors (Junkie XL Vocal Remix)
TTITLE2=Dirty Sticky Floors (The Passengerz Dirty Club Vocal Mix)
TTITLE3=Dirty Sticky Floors (Lexicon Avenue Vocal Mix)
TTITLE4=Dirty Sticky Floors (Silencer Remix)
TTITLE5=Stand Up
TTITLE6=Maybe
EXTD=
EXTT0=
EXTT1=
EXTT2=
EXTT3=
EXTT4=
EXTT5=
EXTT6=
PLAYORDER=
